<?xml version="1.0" encoding="utf-8"?>
<!-- Generator: Adobe Illustrator 16.0.0, SVG Export Plug-In . SVG Version: 6.00 Build 0)  -->
<!DOCTYPE svg PUBLIC "-//W3C//DTD SVG 1.1//EN" "http://www.w3.org/Graphics/SVG/1.1/DTD/svg11.dtd">
<svg version="1.1" id="Layer_1" xmlns="http://www.w3.org/2000/svg" xmlns:xlink="http://www.w3.org/1999/xlink" x="0px" y="0px"
	 width="112.254px" height="104.653px" viewBox="0 0 112.254 104.653" enable-background="new 0 0 112.254 104.653"
	 xml:space="preserve">
<g>
	<path fill="#FFFFFF" d="M17.069,19.302c1.548-4.017,2.943-7.63,4.334-11.246c0.886-2.303,1.796-4.598,2.635-6.918
		c0.289-0.8,0.678-1.158,1.578-1.136c2.422,0.06,4.848-0.003,7.271,0.042c0.364,0.006,0.722,0.333,1.083,0.513
		c-0.315,0.239-0.597,0.607-0.95,0.697c-1.78,0.454-2.263,0.899-2.271,2.719c-0.031,6.677-0.026,13.354,0.008,20.03
		c0.009,1.735,0.544,2.244,2.295,2.737c0.348,0.098,0.615,0.478,0.92,0.728c-0.34,0.149-0.678,0.425-1.019,0.429
		c-3.476,0.031-6.951,0.033-10.426-0.01c-0.349-0.004-0.693-0.364-1.04-0.559c0.309-0.199,0.594-0.495,0.932-0.581
		c1.938-0.493,2.414-0.892,2.431-2.894c0.054-6.538,0.017-13.077,0.006-19.616c0-0.061-0.106-0.122-0.282-0.311
		c-0.333,0.849-0.648,1.628-0.947,2.413c-2.533,6.665-5.052,13.334-7.613,19.988c-0.222,0.575-0.713,1.046-1.08,1.566
		c-0.387-0.506-0.913-0.957-1.138-1.527c-2.627-6.629-5.208-13.277-7.803-19.919C5.784,5.912,5.567,5.382,5.032,4.897
		c0,0.832,0,1.665,0,2.497c-0.003,4.985-0.011,9.969-0.006,14.954c0.001,0.592,0.058,1.186,0.116,1.776
		c0.144,1.465,0.917,2.305,2.404,2.56c0.438,0.075,0.818,0.492,1.225,0.752c-0.462,0.158-0.921,0.442-1.387,0.454
		c-2.056,0.051-4.116,0.053-6.172,0C0.803,27.879,0.404,27.548,0,27.365c0.34-0.206,0.656-0.508,1.025-0.599
		c1.682-0.418,2.282-0.996,2.292-2.747c0.041-6.767,0.014-13.536,0.032-20.303c0.004-1.456-0.767-2.126-2.101-2.434
		C0.818,1.183,0.46,0.77,0.068,0.5C0.484,0.34,0.897,0.049,1.316,0.042C3.648,0,5.981,0.072,8.312,0.007
		c0.933-0.026,1.355,0.292,1.684,1.16c2.072,5.47,4.205,10.918,6.322,16.373C16.495,17.996,16.701,18.442,17.069,19.302z"/>
	<path fill="#FFFFFF" d="M47.862,78.808c1.683-4.917,3.407-9.82,5.025-14.759c0.474-1.449-0.093-2.141-1.569-2.398
		c-0.315-0.055-0.653-0.059-0.937-0.184c-0.205-0.092-0.461-0.346-0.464-0.529c-0.002-0.172,0.297-0.497,0.468-0.5
		c2.284-0.039,4.569-0.045,6.853-0.018c0.186,0.003,0.488,0.301,0.513,0.49c0.024,0.188-0.201,0.557-0.376,0.599
		c-2.109,0.499-2.573,2.319-3.163,3.977c-2.635,7.399-5.218,14.818-7.855,22.218c-0.175,0.491-0.644,0.879-0.976,1.314
		c-0.337-0.428-0.799-0.807-0.992-1.292c-3.062-7.729-6.091-15.473-9.125-23.214c-0.525-1.34-1.07-2.646-2.689-3.031
		c-0.185-0.045-0.465-0.467-0.417-0.554c0.125-0.224,0.411-0.504,0.634-0.506c3.747-0.031,7.495-0.032,11.242-0.001
		c0.224,0.002,0.444,0.328,0.666,0.504c-0.204,0.194-0.405,0.391-0.613,0.582c-0.028,0.024-0.089,0.012-0.133,0.021
		c-2.719,0.596-2.879,0.9-1.85,3.547c1.637,4.215,3.276,8.43,4.919,12.642c0.146,0.374,0.33,0.732,0.496,1.099
		C47.634,78.813,47.748,78.811,47.862,78.808z"/>
	<path fill="#FFFFFF" d="M112.254,16.507c-0.117,4.699-1.568,8.391-5.502,10.708c-4.881,2.876-11.064,1.277-14.021-3.545
		c-2.635-4.292-2.463-10.548,0.434-14.381c2.823-3.735,6.645-4.908,11.064-3.839c4.344,1.051,6.737,4.132,7.695,8.387
		C112.143,14.81,112.173,15.826,112.254,16.507z M106.977,17.687c-0.199-2.251-0.316-3.795-0.479-5.335
		c-0.058-0.54-0.191-1.079-0.351-1.6c-0.906-2.959-2.523-4.503-4.663-4.479c-2.241,0.025-3.896,1.599-4.601,4.67
		c-0.9,3.919-0.901,7.883,0.026,11.796c0.265,1.117,0.83,2.239,1.52,3.163c1.463,1.962,4.495,2.018,6.109,0.162
		c0.583-0.671,1.146-1.498,1.343-2.341C106.395,21.519,106.701,19.267,106.977,17.687z"/>
	<path fill="#FFFFFF" d="M111.876,77.211c-0.086,2.706-0.736,5.194-2.306,7.383c-2.668,3.721-6.916,5.149-11.536,3.944
		c-3.753-0.979-6.952-4.863-7.461-9.124c-0.329-2.764-0.146-5.482,1.103-8.026c2.063-4.207,5.891-6.292,10.655-5.862
		c4.166,0.377,7.738,3.453,8.905,7.789C111.577,74.579,111.67,75.91,111.876,77.211z M106.695,78.082
		c-0.166-3.307-0.659-6.545-1.57-8.399c-0.855-1.741-2.037-3.073-4.168-3.022c-2.182,0.053-3.483,1.398-4.088,3.302
		c-1.549,4.884-1.54,9.819,0.083,14.685c0.6,1.798,1.917,3.029,3.956,3.096c2.086,0.067,3.582-1.012,4.193-2.909
		C105.807,82.639,106.179,80.338,106.695,78.082z"/>
	<path fill="#FFFFFF" d="M70.326,49.632c1.819-5.139,3.506-9.902,5.206-14.703c1.171,0.872,1.167,1.732,0.703,2.989
		c-2.418,6.557-4.697,13.165-7.024,19.755c-0.122,0.344-0.184,0.727-0.378,1.023c-0.2,0.309-0.522,0.729-0.802,0.736
		c-0.262,0.01-0.662-0.407-0.79-0.723c-1.172-2.876-2.306-5.769-3.436-8.662c-1.994-5.106-3.969-10.22-5.974-15.322
		c-0.473-1.204-1.046-2.34-2.48-2.719c-0.24-0.063-0.384-0.492-0.572-0.752c0.261-0.126,0.522-0.362,0.784-0.364
		c3.657-0.023,7.314-0.025,10.97,0.008c0.274,0.002,0.547,0.316,0.82,0.484c-0.284,0.208-0.546,0.552-0.856,0.604
		c-2.469,0.416-2.779,0.931-1.869,3.277c1.719,4.43,3.438,8.86,5.161,13.288C69.885,48.796,70.021,49.023,70.326,49.632z"/>
	<path fill="#FFFFFF" d="M99.051,54.451c-1.729-1.101-3.104-1.903-4.381-2.842c-0.342-0.252-0.521-0.92-0.527-1.4
		c-0.047-3.381-0.064-6.764-0.016-10.145c0.021-1.414-0.316-2.424-1.891-2.667c-0.244-0.038-0.451-0.321-0.723-0.527
		c0.207-0.196,0.301-0.361,0.393-0.36c3.832,0.03,7.694-0.216,11.486,0.192c4.715,0.507,7.766,3.752,8.33,8.479
		c0.476,3.984,0.082,7.824-3.144,10.814c-1.472,1.363-2.925,2.352-4.851,0.805c2.721-2.365,2.852-5.55,2.82-8.932
		c-0.021-2.356-0.107-4.628-1.035-6.801c-0.825-1.931-2.162-3.268-4.385-3.441c-1.563-0.122-2.07,0.338-2.074,1.926
		c-0.01,4.296-0.004,8.591-0.004,12.887C99.051,52.969,99.051,53.499,99.051,54.451z"/>
	<path fill="#FFFFFF" d="M86.882,89.026c-0.416-0.39-0.899-0.728-1.237-1.177c-3.881-5.144-7.737-10.305-11.605-15.459
		c-0.231-0.309-0.505-0.587-0.994-1.15c0,2.616,0,4.877-0.001,7.137c0,1.921-0.022,3.842,0.005,5.762
		c0.029,2.122,0.24,2.373,2.26,3.16c0.243,0.094,0.418,0.363,0.93,0.828c-2.587,0-4.776,0-6.967,0
		c-0.074-0.076-0.15-0.152-0.226-0.228c0.293-0.214,0.563-0.561,0.884-0.616c1.23-0.215,1.713-1.017,1.719-2.129
		c0.025-5.12,0.098-10.243-0.068-15.358c-0.029-0.894-1.103-1.765-1.728-2.622c-0.208-0.285-0.52-0.494-0.784-0.738
		c0.047-0.14,0.095-0.279,0.143-0.418c2.018,0,4.039-0.051,6.053,0.046c0.369,0.018,0.764,0.596,1.058,0.983
		c2.894,3.829,5.767,7.673,8.65,11.51c0.202,0.27,0.441,0.512,0.946,1.091c0-2.296,0-4.19-0.001-6.085
		c-0.001-1.279,0.017-2.56-0.011-3.84c-0.029-1.411-0.526-2.492-2.082-2.799c-0.256-0.051-0.475-0.287-0.906-0.563
		c0.468-0.189,0.695-0.359,0.927-0.363c1.646-0.025,3.291-0.034,4.936-0.003c0.264,0.005,0.522,0.233,0.784,0.358
		c-0.186,0.213-0.339,0.567-0.562,0.618c-1.481,0.337-1.737,1.351-1.729,2.683c0.038,5.852,0.019,11.704,0.02,17.557
		c0,0.498,0,0.998,0,1.496C87.156,88.813,87.02,88.92,86.882,89.026z"/>
	<path fill="#FFFFFF" d="M72.748,6.108c0.143-0.072,0.578-0.479,1.017-0.482c4.479-0.039,8.958,0.006,13.436-0.02
		c0.913-0.005,1.341,0.223,1.306,1.226c-0.063,1.766-0.018,3.536-0.018,5.304c-0.129,0.048-0.259,0.096-0.389,0.143
		c-0.191-0.269-0.492-0.513-0.559-0.81c-0.877-3.975-2.734-4.804-7.414-4.676c-0.843,0.023-1.396,0.417-1.396,1.339
		c-0.004,2.507-0.002,5.014-0.002,7.598c3.705,0.549,4.221-2.199,4.876-4.772c0.879,0.843,0.986,10.07,0.086,11.432
		c-0.644-2.769-1.147-5.576-4.916-5.194c0,2.795-0.063,5.609,0.033,8.418c0.036,1.051,1.069,1.133,1.891,1.179
		c3.625,0.202,6.265-1.284,7.825-4.614c0.211-0.45,0.557-0.836,0.839-1.252c0.169,0.076,0.337,0.151,0.505,0.227
		c-0.355,2.096-0.682,4.198-1.103,6.282c-0.044,0.219-0.642,0.463-0.982,0.465c-4.708,0.03-9.415,0.031-14.122-0.005
		c-0.323-0.002-0.693-0.309-0.938-0.572c-0.075-0.081,0.209-0.482,0.311-0.743c0.273-0.698,0.76-1.397,0.769-2.101
		c0.067-5.164,0.081-10.329-0.003-15.492C73.785,8.141,73.203,7.305,72.748,6.108z"/>
	<path fill="#FFFFFF" d="M69.438,10.176c0.174-0.446,0.348-0.891,0.631-1.617c-0.214,2.154-0.456,4.002-0.565,5.858
		c-0.112,1.896-0.135,3.801-0.118,5.701c0.011,1.307,0.547,2.749,0.15,3.887c-0.629,1.803-1.878,3.49-3.942,3.875
		c-1.669,0.311-3.423,0.284-5.132,0.228c-1.459-0.047-2.949-2.033-4.335,0.69c-0.102-0.185-0.203-0.369-0.305-0.553
		c0-0.977,0-1.953,0-2.93c0-1.417-0.026-2.834,0.021-4.25c0.01-0.285,0.294-0.561,0.453-0.841c0.192,0.22,0.461,0.41,0.562,0.666
		c0.402,1.019,0.674,2.094,1.136,3.082c1.026,2.19,2.95,3.344,5.134,3.197c1.574-0.105,2.512-0.836,3.016-2.349
		c0.479-1.443,0.127-2.982-1.05-3.834c-1.069-0.773-2.253-1.387-3.382-2.078c-0.936-0.572-1.894-1.111-2.789-1.738
		c-3.892-2.723-3.573-7.494-1.111-10.354c1.542-1.791,3.647-1.939,5.801-1.662c0.898,0.115,1.776,0.419,2.648,0.684
		c0.733,0.222,1.414,0.473,1.85-0.486c0.075-0.167,0.594-0.334,0.65-0.271c0.186,0.208,0.344,0.52,0.351,0.795
		c0.033,1.412,0.016,2.825,0.016,4.238C69.23,10.134,69.334,10.155,69.438,10.176z M68.527,16.673
		c0.14-1.305,0.271-2.477,0.383-3.651c0.021-0.217,0.018-0.475-0.08-0.657c-0.412-0.768-0.796-1.565-1.316-2.257
		c-0.891-1.179-1.709-2.506-2.858-3.372c-1.622-1.221-3.774-0.739-4.731,0.714c-1.015,1.538-0.582,3.609,1.162,4.732
		C63.48,13.724,65.959,15.132,68.527,16.673z"/>
	<path fill="#FFFFFF" d="M34.062,5.818c3.703,0,7.049,0,10.396,0c0.023,0.143,0.047,0.286,0.07,0.429
		c-0.381,0.123-0.754,0.3-1.145,0.358c-1.153,0.171-1.701,0.897-1.705,1.974c-0.016,4.614-0.163,9.239,0.087,13.84
		c0.202,3.72,2.655,5.239,6.041,4.188c1.421-0.441,2.399-1.396,2.781-2.792c0.333-1.22,0.559-2.503,0.59-3.764
		c0.081-3.289-0.011-6.581,0.043-9.87c0.03-1.863-0.249-3.41-2.497-3.689c-0.115-0.014-0.232-0.137-0.317-0.236
		c-0.05-0.059-0.037-0.171-0.086-0.447c2.178,0,4.326,0,6.891,0c-0.496,0.447-0.694,0.773-0.956,0.836
		c-1.485,0.358-1.717,1.439-1.713,2.724c0.013,3.61,0.015,7.22-0.001,10.831c-0.009,1.992-0.316,3.914-1.482,5.609
		c-0.866,1.26-2.007,2.226-3.52,2.398c-1.703,0.194-3.478,0.345-5.152,0.081c-3.02-0.478-4.924-2.414-5.351-5.459
		c-0.283-2.022-0.222-4.097-0.254-6.149c-0.038-2.375-0.039-4.753,0-7.128c0.024-1.48-0.108-2.777-1.959-3.032
		C34.628,6.492,34.47,6.205,34.062,5.818z"/>
	<path fill="#FFFFFF" d="M68.581,88.11c-3.438,0-6.876,0-10.313,0c-0.051-0.092-0.102-0.184-0.152-0.275
		c0.303-0.188,0.59-0.497,0.914-0.544c1.197-0.174,1.818-0.859,1.824-2.018c0.021-5.432,0.016-10.863,0.001-16.295
		c-0.003-1.256-0.728-1.879-1.936-2.082c-0.264-0.044-0.478-0.381-0.714-0.584c0.265-0.115,0.528-0.328,0.795-0.33
		c2.92-0.025,5.842-0.03,8.762,0.002c0.275,0.003,0.547,0.293,0.82,0.449c-0.234,0.162-0.446,0.398-0.705,0.473
		c-1.814,0.52-2.027,0.758-2.031,2.664c-0.009,4.883-0.006,9.768,0.001,14.65c0.003,2.332,0.013,2.33,2.282,3.125
		c0.246,0.086,0.48,0.205,0.721,0.309C68.76,87.806,68.671,87.958,68.581,88.11z"/>
	<path fill="#FFFFFF" d="M83.576,44.372c1.718,1.478,3.244,2.758,4.719,4.097c0.2,0.182,0.191,0.648,0.193,0.984
		c0.016,1.966,0.019,3.932,0.002,5.897c-0.012,1.379,0.52,2.271,1.982,2.484c0.266,0.039,0.492,0.346,0.738,0.527
		c-0.262,0.123-0.521,0.35-0.783,0.352c-2.881,0.024-5.761,0.025-8.641-0.004c-0.305-0.004-0.606-0.244-0.91-0.375
		c0.258-0.18,0.496-0.473,0.777-0.521c1.404-0.247,1.854-1.129,1.842-2.448c-0.026-3.109-0.012-6.218-0.006-9.327
		C83.491,45.558,83.539,45.079,83.576,44.372z"/>
	<path fill="#FFFFFF" d="M47.997,101.137c0.642-1.769,0.39-5.154-0.268-5.731c0.222-0.655,0.495-1.227,0.604-1.827
		c0.328-1.804,1.947-2.828,3.375-1.977c0.447,0.266,0.68,0.953,0.889,1.496c0.029,0.075-0.642,0.421-0.989,0.642
		c-0.175-0.499-0.349-0.997-0.527-1.495c-0.029-0.082-0.077-0.156-0.119-0.234c-1.221,0.783-1,2.355,0.576,3.272
		c-0.463,0.189-0.846,0.347-1.353,0.554c0.443,1.862-0.694,3.934,0.988,5.869c-0.836,0-1.575-0.03-2.309,0.009
		c-0.875,0.046-1.75,0.241-2.616,0.198c-0.533-0.026-1.051-0.377-1.669-0.619c-1.567,0.867-2.682,0.811-3.2-0.24
		c-0.554-1.125,0.135-2.191,1.84-2.984c0.743-0.345,1.921-0.271,1.667-1.699c-0.209-1.178-0.787-1.395-1.905-1.008
		c0.079,0.295,0.199,0.508,0.174,0.7c-0.057,0.442-0.114,0.915-0.326,1.287c-0.067,0.117-0.838,0.059-0.923-0.106
		c-0.206-0.4-0.397-0.997-0.24-1.361c0.543-1.257,1.711-1.387,2.896-1.256c1.115,0.124,2.082,0.536,2.164,1.858
		c0.062,1.001,0.091,2.013,0.016,3.011C46.674,100.428,47.007,100.949,47.997,101.137z M45.068,98.475
		c-0.184-0.084-0.368-0.168-0.552-0.252c-0.874,0.318-1.332,0.953-1.142,1.922c0.043,0.219,0.497,0.357,0.761,0.533
		C44.446,99.943,44.757,99.209,45.068,98.475z"/>
	<path fill="#FFFFFF" d="M98.248,101.049c0-3.123,0-6.246,0-9.438c0.528,0,1.242,0,2.189,0c0,1.055-0.001,2.082,0,3.107
		c0,1.553-0.033,3.107,0.017,4.658c0.023,0.729,0.21,1.452,0.347,2.336c-0.541,0-1.203-0.025-1.861,0.006
		c-0.822,0.041-1.646,0.214-2.459,0.168c-0.537-0.029-1.058-0.344-1.696-0.569c-1.6,0.853-2.628,0.792-3.177-0.278
		c-0.57-1.113,0.098-2.154,1.846-2.967c0.719-0.334,1.766-0.313,1.617-1.627c-0.143-1.258-0.504-1.509-1.828-0.926
		c0.04,0.157,0.133,0.33,0.115,0.49c-0.047,0.449-0.061,0.938-0.264,1.316c-0.059,0.112-0.96,0.012-1.023-0.158
		c-0.168-0.451-0.258-1.07-0.07-1.484c0.424-0.939,1.959-1.338,3.305-0.998c1.114,0.281,1.719,0.971,1.715,2.152
		c-0.002,0.958-0.074,1.93,0.057,2.871c0.073,0.533,0.494,1.02,0.759,1.526C97.973,101.173,98.111,101.111,98.248,101.049z
		 M95.043,98.337c-0.135-0.073-0.27-0.146-0.404-0.22c-0.355,0.455-0.85,0.867-1.018,1.384c-0.102,0.315,0.301,0.794,0.476,1.198
		c0.315-0.301,0.772-0.55,0.909-0.918C95.164,99.354,95.043,98.823,95.043,98.337z"/>
	<path fill="#FFFFFF" d="M101.502,94.838c0.557-0.686,1.291-1.59,2.106-2.592c0.626,0.968-0.327,2.657,1.598,2.727
		c-0.513,0.411-1.198,0.693-1.224,1.026c-0.117,1.544-0.052,3.102-0.052,5.022c0.794-0.545,1.31-0.711,1.485-1.053
		c0.645-1.252,1.751-1.814,2.986-2.215c1.049-0.339,0.963-1.109,0.705-1.877c-0.297-0.887-0.953-0.801-1.735-0.492
		c0.074,0.313,0.198,0.568,0.177,0.811c-0.033,0.371-0.064,0.831-0.29,1.067c-0.165,0.173-0.767,0.183-0.951,0.018
		c-0.255-0.229-0.499-0.77-0.394-1.035c0.201-0.503,0.563-1.079,1.018-1.319c2.162-1.143,4.15,0.1,4.172,2.537
		c0.005,0.639-0.055,1.284,0.016,1.916c0.068,0.607,0.266,1.2,0.455,2.014c-0.691,0.738-1.557,0.861-2.432-0.176
		c-2.186,1.046-2.584,0.996-3.672-0.504c-0.26,0.246-0.474,0.595-0.773,0.703c-0.563,0.203-1.275,0.51-1.74,0.32
		c-0.448-0.184-0.869-0.912-0.938-1.448c-0.145-1.123-0.005-2.279-0.072-3.417C101.91,96.254,101.687,95.647,101.502,94.838z
		 M109.16,98.297c-0.146-0.072-0.291-0.144-0.438-0.216c-0.352,0.468-0.842,0.892-1,1.417c-0.096,0.314,0.327,0.787,0.518,1.189
		c0.307-0.311,0.751-0.572,0.885-0.944C109.279,99.313,109.16,98.783,109.16,98.297z"/>
	<path fill="#FFFFFF" d="M88.105,46.482c-1.521-1.447-3.031-2.759-4.363-4.23c-0.36-0.398-0.234-1.282-0.244-1.944
		c-0.027-2.114-0.1-2.222-2.045-2.931c-0.23-0.084-0.379-0.396-0.564-0.602c0.221-0.115,0.439-0.329,0.661-0.33
		c3.015-0.021,6.03-0.02,9.045,0.004c0.212,0.002,0.423,0.226,0.635,0.346c-0.198,0.19-0.383,0.529-0.595,0.547
		c-1.759,0.152-2.127,0.977-2.146,2.88c-0.02,1.918-0.029,3.836-0.051,5.754C88.436,46.05,88.346,46.123,88.105,46.482z"/>
	<path fill="#FFFFFF" d="M33.794,34.53c-0.238-1.275-0.447-2.394-0.653-3.495c2.488-0.302,2.488-0.302,2.484,2.363
		c-0.003,1.735-0.043,3.471,0.012,5.204c0.022,0.717,0.249,1.427,0.439,2.445c-0.826-0.084-1.723-0.188-2.622-0.256
		c-0.151-0.011-0.314,0.133-0.472,0.203c-1.372,0.61-2.395,0.319-3.066-1.013c-0.821-1.628-0.714-3.288,0.238-4.829
		C30.874,33.983,31.736,33.843,33.794,34.53z M33.566,37.752c0.007,0,0.015,0,0.022,0c0-0.544,0.123-1.127-0.037-1.619
		c-0.144-0.443-0.596-0.787-0.912-1.174c-0.324,0.324-0.889,0.622-0.928,0.978c-0.126,1.157-0.134,2.341-0.024,3.5
		c0.034,0.35,0.6,0.648,0.921,0.97c0.319-0.341,0.788-0.635,0.919-1.038C33.689,38.879,33.566,38.296,33.566,37.752z"/>
	<path fill="#FFFFFF" d="M90.334,91.639c0,0.852,0,1.814,0,3.104c-0.613-0.958-0.958-1.701-1.486-2.277
		c-0.893-0.971-2.451-0.801-2.679,0.285c-0.104,0.503,0.159,1.285,0.538,1.643c0.648,0.613,1.516,0.999,2.297,1.469
		c1.612,0.97,2.207,2.461,1.604,4.047c-0.605,1.595-2.201,2.345-4.053,1.938c-0.658-0.145-1.334-0.218-2.092-0.339
		c0-0.931,0-2.041,0-3.15c0.094-0.025,0.188-0.051,0.283-0.076c0.137,0.389,0.18,0.857,0.431,1.148
		c0.572,0.663,1.157,1.445,1.912,1.77c0.437,0.187,1.574-0.281,1.745-0.713c0.211-0.531-0.051-1.529-0.477-1.971
		c-0.676-0.7-1.691-1.057-2.501-1.646c-1.425-1.036-1.774-2.581-1.012-4.112c0.637-1.279,1.983-1.747,3.657-1.334
		C89.064,91.563,89.66,91.564,90.334,91.639z"/>
	<path fill="#FFFFFF" d="M40.496,99.273c-0.801,2.215-2.983,3.17-5.09,2.579c-2.779-0.778-4.216-3.993-3.203-7.165
		c0.853-2.67,3.509-3.904,6.269-2.98c0.525,0.176,1.142,0.079,1.829,0.113c0,0.797,0,1.836,0,3.268
		c-0.541-0.811-0.851-1.334-1.217-1.813c-0.671-0.879-1.493-1.488-2.687-1.254c-1.195,0.234-1.641,1.173-1.741,2.193
		c-0.141,1.441-0.255,2.924-0.07,4.348c0.348,2.685,2.577,3.46,4.688,1.744C39.585,100.054,39.886,99.789,40.496,99.273z"/>
	<path fill="#FFFFFF" d="M91.387,58.633c0.918-0.971,2.699-4.572,2.924-5.773c1.564,0.916,3.078,1.796,4.584,2.691
		c0.1,0.061,0.158,0.216,0.204,0.339c0.649,1.756,0.843,1.796,2.591,1.618c0.756-0.077,1.557,0.278,2.309,0.713
		C99.869,58.922,95.766,58.744,91.387,58.633z"/>
	<path fill="#FFFFFF" d="M55.462,101.167c-0.406,0.216-0.713,0.417-1.047,0.548c-0.876,0.342-1.753,0.395-2.281-0.539
		c-0.559-0.986-0.258-1.881,0.658-2.488c0.6-0.396,1.277-0.703,1.956-0.95c1.049-0.382,0.915-1.181,0.658-1.908
		c-0.299-0.845-0.958-0.812-1.72-0.386c0.055,0.24,0.158,0.455,0.139,0.658c-0.038,0.41-0.025,0.919-0.261,1.184
		c-0.15,0.168-0.92,0.1-1.041-0.094c-0.227-0.364-0.388-0.998-0.218-1.34c0.627-1.262,1.835-1.357,3.065-1.209
		c1.161,0.139,1.989,0.697,2.042,1.977c0.04,1.002-0.039,2.009,0.031,3.006c0.035,0.502,0.281,0.988,0.5,1.71
		C57.223,102.055,56.345,102.412,55.462,101.167z M55.768,98.449c-0.195-0.084-0.39-0.167-0.584-0.251
		c-0.848,0.345-1.395,0.933-1.155,1.941c0.055,0.231,0.509,0.368,0.779,0.548C55.128,99.941,55.448,99.195,55.768,98.449z"/>
	<path fill="#FFFFFF" d="M54.925,40.758c-0.775,0.75-1.657,0.944-2.489-0.172c-0.434,0.219-0.784,0.429-1.158,0.578
		c-0.92,0.367-1.77,0.238-2.237-0.686c-0.444-0.877-0.214-1.731,0.625-2.281c0.645-0.421,1.338-0.812,2.064-1.053
		c1.13-0.376,0.863-1.194,0.626-1.889c-0.292-0.856-0.965-0.816-1.73-0.386c0.038,0.186,0.108,0.351,0.098,0.511
		c-0.029,0.449,0.005,0.945-0.189,1.317c-0.072,0.137-0.984,0.082-1.041-0.066c-0.175-0.461-0.338-1.133-0.123-1.498
		c0.668-1.135,1.824-1.227,3.016-1.03c1.086,0.179,1.927,0.653,1.986,1.887c0.051,1.048-0.01,2.103,0.061,3.149
		C54.466,39.602,54.703,40.051,54.925,40.758z M52.463,37.762c-0.159-0.077-0.317-0.154-0.476-0.231
		c-0.353,0.505-0.82,0.972-1.011,1.532c-0.094,0.276,0.323,0.726,0.509,1.098c0.326-0.305,0.797-0.554,0.939-0.928
		C52.589,38.8,52.463,38.257,52.463,37.762z"/>
	<path fill="#FFFFFF" d="M70.861,101.402c-0.72,0.711-1.597,0.854-2.475-0.221c-0.402,0.203-0.753,0.402-1.121,0.562
		c-0.925,0.399-1.75,0.246-2.237-0.664c-0.472-0.882-0.216-1.747,0.571-2.308c0.621-0.441,1.355-0.758,2.082-1.008
		c1.076-0.369,0.928-1.15,0.67-1.891c-0.295-0.848-0.936-0.855-1.727-0.422c0.049,0.23,0.145,0.441,0.126,0.644
		c-0.038,0.407-0.038,0.878-0.251,1.185c-0.111,0.159-0.848,0.152-0.947-0.005c-0.236-0.368-0.46-0.944-0.33-1.308
		c0.476-1.322,1.653-1.414,2.84-1.341c1.215,0.075,2.154,0.562,2.267,1.911c0.079,0.953-0.017,1.922,0.061,2.875
		C70.439,100.014,70.664,100.602,70.861,101.402z M68.431,98.281c-0.165-0.062-0.33-0.123-0.495-0.185
		c-0.335,0.474-0.809,0.908-0.953,1.435c-0.088,0.316,0.334,0.775,0.527,1.17c0.307-0.32,0.748-0.592,0.885-0.972
		C68.55,99.298,68.431,98.768,68.431,98.281z"/>
	<path fill="#FFFFFF" d="M64.263,94.786c-0.788,2.259-1.522,4.397-2.286,6.526c-0.307,0.855-0.53,1.806-1.074,2.489
		c-0.395,0.497-1.236,0.774-1.912,0.852c-0.285,0.032-0.762-0.665-0.938-1.114c-0.074-0.188,0.52-0.886,0.614-0.849
		c0.429,0.167,0.79,0.508,1.167,0.798c0.092,0.07,0.146,0.188,0.49,0.644c0.3-1.067,0.869-1.946,0.674-2.599
		c-0.674-2.25-1.615-4.422-2.479-6.688c0.829,0,1.822,0,2.512,0c0.283,1.207,0.559,2.383,0.836,3.558
		c0.187,0.001,0.374,0.003,0.562,0.003c0.238-1.162,0.477-2.325,0.741-3.62C63.313,94.786,63.834,94.786,64.263,94.786z"/>
	<path fill="#FFFFFF" d="M42.93,47.546c-0.612,1.696-1.163,3.229-1.718,4.759c-0.467,1.286-0.872,2.601-1.443,3.837
		c-0.241,0.523-0.793,1.149-1.29,1.236c-0.511,0.09-1.182-0.352-1.657-0.721c-0.117-0.09,0.252-0.807,0.398-1.236
		c0.516,0.231,1.032,0.463,1.795,0.806c0.493-0.413,0.938-1.235,0.593-2.222c-0.748-2.136-1.6-4.236-2.437-6.42
		c0.904,0,1.91,0,2.938,0c-1.002,1.431,0.514,2.357,0.416,3.591c0.171,0.004,0.341,0.008,0.512,0.012
		c0.258-1.169,0.516-2.339,0.817-3.7C42.003,47.497,42.534,47.525,42.93,47.546z"/>
	<path fill="#FFFFFF" d="M45.7,41.005c0-3.377,0-6.649,0-10.03c0.217,0,0.577,0.04,0.926-0.007c1.003-0.137,1.369,0.206,1.33,1.276
		c-0.083,2.282-0.043,4.57-0.006,6.855c0.01,0.602,0.191,1.201,0.312,1.906C47.463,41.005,46.551,41.005,45.7,41.005z"/>
	<path fill="#FFFFFF" d="M80.881,100.141c-1.176,1.593-2.18,2.074-3.373,1.688c-1.259-0.408-2.012-1.576-2.064-3.234
		c-0.012-0.41-0.004-0.826,0.053-1.23c0.242-1.734,1.533-2.908,3.007-2.757c1.427,0.146,2.276,1.334,2.276,3.356
		c-1.057,0.063-2.127,0.125-3.649,0.213c0.52,0.938,0.759,1.969,1.38,2.313C79.045,100.785,80.012,100.298,80.881,100.141z
		 M79.289,97.403c-0.269-0.882-0.428-1.501-0.669-2.085c-0.034-0.082-0.659-0.074-0.701,0.025c-0.249,0.577-0.405,1.193-0.639,1.941
		C77.999,97.328,78.434,97.354,79.289,97.403z"/>
	<path fill="#FFFFFF" d="M41.926,37.423c-1.107,0.049-2.135,0.095-3.15,0.14c-0.118,2.498,0.719,2.981,3.307,1.816
		c-0.614,1.254-1.396,1.955-2.643,1.953c-1.283-0.002-2.209-0.703-2.555-1.89c-0.247-0.847-0.288-1.805-0.196-2.69
		c0.171-1.646,1.501-2.817,2.893-2.727C41.087,34.122,41.988,35.365,41.926,37.423z M38.3,36.358
		c0.124,0.137,0.248,0.273,0.372,0.41c0.519,0,1.038,0,2.012,0c-0.473-0.892-0.815-1.538-1.157-2.185
		C39.118,35.174,38.709,35.766,38.3,36.358z"/>
	<path fill="#FFFFFF" d="M48.609,50.737c0.04,2.693,0.949,3.205,3.076,1.999c-0.216,0.989-0.824,1.622-1.802,1.826
		c-1.154,0.241-2.069-0.183-2.756-1.101c-0.908-1.214-0.93-3.73-0.01-4.944c0.753-0.993,1.752-1.473,3.008-1.039
		c1.188,0.41,1.751,1.502,1.649,3.259C50.757,50.737,49.726,50.737,48.609,50.737z M50.02,50.051
		c0.147-0.122,0.295-0.245,0.442-0.367c-0.395-0.586-0.789-1.172-1.184-1.757c-0.346,0.623-0.692,1.247-1.179,2.124
		C49.064,50.051,49.542,50.051,50.02,50.051z"/>
	<path fill="#FFFFFF" d="M52.606,44.362c0.478,0,1.19,0,2.087,0c0,2.709-0.025,5.347,0.019,7.983c0.01,0.627,0.25,1.25,0.406,1.971
		c-0.827,0-1.826,0-2.721,0C53.012,51.017,52.761,47.746,52.606,44.362z"/>
	<path fill="#FFFFFF" d="M71.439,94.8c0.6-0.733,1.31-1.602,2.062-2.521c0.731,0.869-0.598,2.729,1.757,2.741
		c-1.814,0.342-1.445,1.516-1.462,2.492c-0.017,1.023-0.004,2.047-0.004,3.303c0.687-0.271,1.059-0.416,1.542-0.606
		c-0.318,1.159-0.99,1.765-2.059,1.683c-1.131-0.086-1.457-0.908-1.429-1.949c0.028-1.046,0.045-2.096-0.012-3.139
		C71.803,96.214,71.611,95.634,71.439,94.8z"/>
	<path fill="#FFFFFF" d="M74.602,30.877c2.011,0,3.638-0.016,5.263,0.021c0.187,0.004,0.495,0.288,0.516,0.467
		c0.022,0.198-0.177,0.49-0.362,0.63c-0.94,0.713-1.908,1.39-3.053,2.213C76.385,33.392,75.625,32.32,74.602,30.877z"/>
</g>
</svg>
