<?xml version="1.0" encoding="utf-8"?>
<!-- Generator: Adobe Illustrator 16.0.0, SVG Export Plug-In . SVG Version: 6.00 Build 0)  -->
<!DOCTYPE svg PUBLIC "-//W3C//DTD SVG 1.1//EN" "http://www.w3.org/Graphics/SVG/1.1/DTD/svg11.dtd">
<svg version="1.1" id="Layer_1" xmlns="http://www.w3.org/2000/svg" xmlns:xlink="http://www.w3.org/1999/xlink" x="0px" y="0px"
	 width="205.75px" height="205.75px" viewBox="0 0 205.75 205.75" enable-background="new 0 0 205.75 205.75" xml:space="preserve">
<rect fill="#D92727" width="205.75" height="205.75"/>
<g>
	<g>
		<path fill="#F7EC27" d="M77.24,77.239H11.01V11.01H77.24V77.239z M19.907,68.343h48.437V19.906H19.907V68.343z"/>
	</g>
</g>
<rect x="32.792" y="32.791" fill="#F7EC27" width="22.667" height="22.667"/>
<rect x="150.292" y="32.791" fill="#F7EC27" width="22.666" height="22.667"/>
<g>
	<g>
		<path fill="#F7EC27" d="M194.739,194.74h-66.229v-66.23h66.229V194.74z M137.407,185.843h48.436v-48.437h-48.436V185.843z"/>
	</g>
</g>
<rect x="150.292" y="150.291" fill="#F7EC27" width="22.666" height="22.667"/>
<rect x="32.792" y="150.291" fill="#F7EC27" width="22.666" height="22.667"/>
<path fill="#F7EC27" d="M194.739,11.01h-66.229v49.437l-117.5,69.064v65.229h66.229v-50.482l117.5-69.02V11.01z M68.343,138.407
	v47.437H19.907v-50.438l117.5-69.064V19.906h48.436v49.437L68.343,138.407z"/>
<text transform="matrix(1 0 0 1 -1 292.4722)" font-family="'FuturaBT-MediumCondensed'" font-size="98.5402" letter-spacing="4">MAAM</text>
<g>
	
		<text transform="matrix(1 0 0 1 -1.001 345.269)" fill="#ADADAD" font-family="'FuturaBT-MediumCondensed'" font-size="51.6728" letter-spacing="26">SALTA</text>
</g>
</svg>
